<svg version="1.1" xmlns="http://www.w3.org/2000/svg" viewBox="0 0 2545.772197994494 994" width="2545.772197994494" height="994" filter="invert(93%) hue-rotate(180deg)">
  <!-- svg-source:excalidraw -->
  
  <defs>
    <style class="style-fonts">
      @font-face {
        font-family: "Virgil";
        src: url("https://excalidraw.com/Virgil.woff2");
      }
      @font-face {
        font-family: "Cascadia";
        src: url("https://excalidraw.com/Cascadia.woff2");
      }
      @font-face {
        font-family: "Assistant";
        src: url("https://excalidraw.com/Assistant-Regular.woff2");
      }
    </style>
    
  </defs>
  <rect x="0" y="0" width="2545.772197994494" height="994" fill="#ffffff"></rect><g stroke-linecap="round" transform="translate(637.03125 39) rotate(0 263.5 472.5)"><path d="M32 0 C167.97 -1.32, 302.52 -1.34, 495 0 M32 0 C172.18 2.33, 312.37 2.17, 495 0 M495 0 C515.95 -1.87, 526.98 9.39, 527 32 M495 0 C516.01 -0.25, 528.32 8.53, 527 32 M527 32 C525.04 219.97, 524.5 406.31, 527 913 M527 32 C529.41 275.52, 529.39 519.39, 527 913 M527 913 C528.57 934.3, 517.78 944.83, 495 945 M527 913 C525.17 933.12, 514.58 944.52, 495 945 M495 945 C356.79 945.19, 218.16 944.84, 32 945 M495 945 C317.5 945.72, 138.99 945.75, 32 945 M32 945 C11.61 945.59, -0.78 935.6, 0 913 M32 945 C10.3 944.56, -1.22 932.61, 0 913 M0 913 C0.46 711.23, 0.71 508.86, 0 32 M0 913 C2.61 673.06, 2.62 434.06, 0 32 M0 32 C-0.75 12.06, 9.1 0.46, 32 0 M0 32 C-0.08 12.57, 12.78 -0.51, 32 0" stroke="#1e1e1e" stroke-width="2" fill="none"></path></g><g transform="translate(834.0416641235352 10) rotate(0 58.17499923706055 12.5)"><text x="0" y="17.52" font-family="Virgil, Segoe UI Emoji" font-size="20px" fill="#1e1e1e" text-anchor="start" style="white-space: pre;" direction="ltr" dominant-baseline="alphabetic">Serveur web</text></g><g stroke-linecap="round" transform="translate(10 132) rotate(0 125 66)"><path d="M32 0 C102.34 0.66, 172.03 3.51, 218 0 M32 0 C106.57 -2.19, 179.38 -0.95, 218 0 M218 0 C239.78 -0.1, 251.06 10.83, 250 32 M218 0 C241.22 -1.44, 249.75 9.95, 250 32 M250 32 C248.45 51.76, 250.74 68.8, 250 100 M250 32 C249.5 57.13, 249.72 82.16, 250 100 M250 100 C248.58 120.77, 238.64 131.45, 218 132 M250 100 C248.03 119.06, 241.31 133.69, 218 132 M218 132 C173.52 131.35, 128.37 129.49, 32 132 M218 132 C175.17 131.53, 131.26 130.71, 32 132 M32 132 C12.47 133.21, 0.21 121.83, 0 100 M32 132 C10.89 130.4, -0.67 120.84, 0 100 M0 100 C-0.24 80.64, -2 63.62, 0 32 M0 100 C-1.27 77.55, -0.89 52.72, 0 32 M0 32 C-1.32 11.76, 12.52 -0.65, 32 0 M0 32 C-1.64 9.64, 11.67 1.39, 32 0" stroke="#1e1e1e" stroke-width="2" fill="none"></path></g><g transform="translate(38.775001525878906 185.5) rotate(0 96.2249984741211 12.5)"><text x="96.2249984741211" y="17.52" font-family="Virgil, Segoe UI Emoji" font-size="20px" fill="#1e1e1e" text-anchor="middle" style="white-space: pre;" direction="ltr" dominant-baseline="alphabetic">Popole sur son Ordi</text></g><g transform="translate(67 72) rotate(0 64.06666564941406 25)"><text x="64.06666564941406" y="17.52" font-family="Virgil, Segoe UI Emoji" font-size="20px" fill="#1e1e1e" text-anchor="middle" style="white-space: pre;" direction="ltr" dominant-baseline="alphabetic">Client web</text><text x="64.06666564941406" y="42.519999999999996" font-family="Virgil, Segoe UI Emoji" font-size="20px" fill="#1e1e1e" text-anchor="middle" style="white-space: pre;" direction="ltr" dominant-baseline="alphabetic">( navigateur)</text></g><g stroke-linecap="round"><g transform="translate(298 131) rotate(0 146 0)"><path d="M0.41 0.12 C49.18 0.32, 244.22 0.52, 292.66 0.35 M-0.83 -0.86 C47.84 -0.97, 243.01 -1.73, 292.06 -1.59" stroke="#1e1e1e" stroke-width="2" fill="none"></path></g><g transform="translate(298 131) rotate(0 146 0)"><path d="M268.58 6.99 C275.99 5.41, 283.51 0.14, 292.06 -1.59 M268.58 6.99 C273.04 4.66, 279.87 2.5, 292.06 -1.59" stroke="#1e1e1e" stroke-width="2" fill="none"></path></g><g transform="translate(298 131) rotate(0 146 0)"><path d="M268.56 -10.11 C275.86 -6.49, 283.39 -6.55, 292.06 -1.59 M268.56 -10.11 C273.08 -8.55, 279.91 -6.82, 292.06 -1.59" stroke="#1e1e1e" stroke-width="2" fill="none"></path></g></g><mask></mask><g transform="translate(314.04166412353516 93) rotate(0 123.95833587646484 12.5)"><text x="123.95833587646484" y="17.52" font-family="Virgil, Segoe UI Emoji" font-size="20px" fill="#1e1e1e" text-anchor="middle" style="white-space: pre;" direction="ltr" dominant-baseline="alphabetic">1. Demande la page /login</text></g><g transform="translate(787.4249992370605 61) rotate(0 104.79166412353516 12.5)"><text x="104.79166412353516" y="17.52" font-family="Virgil, Segoe UI Emoji" font-size="20px" fill="#1e1e1e" text-anchor="middle" style="white-space: pre;" direction="ltr" dominant-baseline="alphabetic">2. Reçoit la demande</text></g><g transform="translate(780.9666633605957 100.5) rotate(0 111.25 25)"><text x="111.25" y="17.52" font-family="Virgil, Segoe UI Emoji" font-size="20px" fill="#1e1e1e" text-anchor="middle" style="white-space: pre;" direction="ltr" dominant-baseline="alphabetic">3. Regarde s'il connait</text><text x="111.25" y="42.519999999999996" font-family="Virgil, Segoe UI Emoji" font-size="20px" fill="#1e1e1e" text-anchor="middle" style="white-space: pre;" direction="ltr" dominant-baseline="alphabetic">le chemin "/login"</text></g><g transform="translate(799.0833320617676 158) rotate(0 93.13333129882812 25)"><text x="93.13333129882812" y="17.52" font-family="Virgil, Segoe UI Emoji" font-size="20px" fill="#1e1e1e" text-anchor="middle" style="white-space: pre;" direction="ltr" dominant-baseline="alphabetic">4. Trouve la bonne</text><text x="93.13333129882812" y="42.519999999999996" font-family="Virgil, Segoe UI Emoji" font-size="20px" fill="#1e1e1e" text-anchor="middle" style="white-space: pre;" direction="ltr" dominant-baseline="alphabetic">méthode associé </text></g><g transform="translate(781.5416603088379 214.1699908313039) rotate(0 110.67500305175781 12.5)"><text x="110.67500305175781" y="17.52" font-family="Virgil, Segoe UI Emoji" font-size="20px" fill="#1e1e1e" text-anchor="middle" style="white-space: pre;" direction="ltr" dominant-baseline="alphabetic">5. Éxecute la méthode</text></g><g transform="translate(748.5528830686244 257.97362552790463) rotate(0 147.7083282470703 62.50000000000003)"><text x="147.7083282470703" y="17.52" font-family="Virgil, Segoe UI Emoji" font-size="20px" fill="#1e1e1e" text-anchor="middle" style="white-space: pre;" direction="ltr" dominant-baseline="alphabetic">5.1 Si le controlleur a </text><text x="147.7083282470703" y="42.519999999999996" font-family="Virgil, Segoe UI Emoji" font-size="20px" fill="#1e1e1e" text-anchor="middle" style="white-space: pre;" direction="ltr" dominant-baseline="alphabetic">besoin d'information</text><text x="147.7083282470703" y="67.52" font-family="Virgil, Segoe UI Emoji" font-size="20px" fill="#1e1e1e" text-anchor="middle" style="white-space: pre;" direction="ltr" dominant-baseline="alphabetic">(ex: vérifier le user)</text><text x="147.7083282470703" y="92.52" font-family="Virgil, Segoe UI Emoji" font-size="20px" fill="#1e1e1e" text-anchor="middle" style="white-space: pre;" direction="ltr" dominant-baseline="alphabetic">Il fait les étapes ci-dessous:</text><text x="147.7083282470703" y="117.52" font-family="Virgil, Segoe UI Emoji" font-size="20px" fill="#1e1e1e" text-anchor="middle" style="white-space: pre;" direction="ltr" dominant-baseline="alphabetic">Sinon il passe à l'étape 6</text></g><g stroke-linecap="round" transform="translate(653 397) rotate(0 248 230)"><path d="M32 0 C175.73 -0.09, 318.62 0.13, 464 0 M32 0 C118.15 -1.12, 205.23 -1.03, 464 0 M464 0 C483.95 -0.61, 495.16 11.32, 496 32 M464 0 C487.26 0.89, 496.95 11.39, 496 32 M496 32 C495.82 155.07, 495.34 276.55, 496 428 M496 32 C496.87 176.74, 497.04 320.68, 496 428 M496 428 C497.43 451.3, 484.14 460.69, 464 460 M496 428 C496.35 450.16, 483.08 458.44, 464 460 M464 460 C297.23 460.7, 131.02 460.33, 32 460 M464 460 C346.01 459.38, 227.25 460.15, 32 460 M32 460 C12.02 460.97, -0.4 448.25, 0 428 M32 460 C9.23 461.17, -0.82 447.84, 0 428 M0 428 C-0.02 310.66, -0.43 196.01, 0 32 M0 428 C-2.31 304.37, -2.39 181.16, 0 32 M0 32 C-0.7 12.19, 12.47 0.75, 32 0 M0 32 C0.35 12.69, 8.93 2.25, 32 0" stroke="#1e1e1e" stroke-width="2" fill="none"></path></g><g transform="translate(711.1022596435548 413.265625) rotate(0 177.7833404541016 68.5)"><text x="177.78334045410156" y="19.20192" font-family="Virgil, Segoe UI Emoji" font-size="21.92px" fill="#1e1e1e" text-anchor="middle" style="white-space: pre;" direction="ltr" dominant-baseline="alphabetic">5.2 Prépare une requête</text><text x="177.78334045410156" y="46.60192000000001" font-family="Virgil, Segoe UI Emoji" font-size="21.92px" fill="#1e1e1e" text-anchor="middle" style="white-space: pre;" direction="ltr" dominant-baseline="alphabetic">sous forme d'url (ex: /user) </text><text x="177.78334045410156" y="74.00192000000001" font-family="Virgil, Segoe UI Emoji" font-size="21.92px" fill="#1e1e1e" text-anchor="middle" style="white-space: pre;" direction="ltr" dominant-baseline="alphabetic">avec dans le contenu (le "corp") </text><text x="177.78334045410156" y="101.40192" font-family="Virgil, Segoe UI Emoji" font-size="21.92px" fill="#1e1e1e" text-anchor="middle" style="white-space: pre;" direction="ltr" dominant-baseline="alphabetic">les informations tels que l'id</text><text x="177.78334045410156" y="128.80192" font-family="Virgil, Segoe UI Emoji" font-size="21.92px" fill="#1e1e1e" text-anchor="middle" style="white-space: pre;" direction="ltr" dominant-baseline="alphabetic">et le mdp</text></g><g transform="translate(666.7416687011719 580.3671875) rotate(0 226.25833129882812 41.10000000000002)"><text x="226.25833129882812" y="19.20192" font-family="Virgil, Segoe UI Emoji" font-size="21.92px" fill="#1e1e1e" text-anchor="middle" style="white-space: pre;" direction="ltr" dominant-baseline="alphabetic">5.3 Lance la requete à une</text><text x="226.25833129882812" y="46.60192000000001" font-family="Virgil, Segoe UI Emoji" font-size="21.92px" fill="#1e1e1e" text-anchor="middle" style="white-space: pre;" direction="ltr" dominant-baseline="alphabetic">certaines adresses avec comme lien /user</text><text x="226.25833129882812" y="74.00192000000001" font-family="Virgil, Segoe UI Emoji" font-size="21.92px" fill="#1e1e1e" text-anchor="middle" style="white-space: pre;" direction="ltr" dominant-baseline="alphabetic">et le cotenu du corp</text></g><g stroke-linecap="round"><g transform="translate(1200.455894921106 604.3408130279046) rotate(0 144.90320230885345 -163.1301008556569)"><path d="M0.35 0.06 C48.64 -54.26, 240.82 -272.24, 288.9 -326.62 M-0.93 -0.96 C47.81 -55.04, 242.45 -271.28, 291.14 -325.28" stroke="#1e1e1e" stroke-width="2" fill="none"></path></g><g transform="translate(1200.455894921106 604.3408130279046) rotate(0 144.90320230885345 -163.1301008556569)"><path d="M281.77 -302.1 C284.16 -308.95, 285.61 -314.36, 291.14 -325.28 M281.77 -302.1 C283.54 -308.93, 288.13 -315.48, 291.14 -325.28" stroke="#1e1e1e" stroke-width="2" fill="none"></path></g><g transform="translate(1200.455894921106 604.3408130279046) rotate(0 144.90320230885345 -163.1301008556569)"><path d="M269.07 -313.55 C274.3 -317.81, 278.66 -320.59, 291.14 -325.28 M269.07 -313.55 C274.73 -317.04, 283.13 -320.16, 291.14 -325.28" stroke="#1e1e1e" stroke-width="2" fill="none"></path></g></g><mask></mask><g stroke-linecap="round" transform="translate(1529.209697994494 211.84374256381165) rotate(0 197.9999999999999 302)"><path d="M32 0 C108.83 2.17, 181.88 1.74, 364 0 M32 0 C110.64 -0.81, 188.96 -0.26, 364 0 M364 0 C385.86 0.89, 397.38 10.59, 396 32 M364 0 C383.91 -2.08, 396.57 12.76, 396 32 M396 32 C394.71 233.57, 395.54 434.94, 396 572 M396 32 C395.53 155.99, 395.72 279.27, 396 572 M396 572 C395.5 594.56, 386.29 602.18, 364 604 M396 572 C394.82 593.04, 383.29 602.12, 364 604 M364 604 C279.79 603.92, 195.44 604.53, 32 604 M364 604 C281.91 605.25, 200.59 605.26, 32 604 M32 604 C8.72 604.7, -1.41 595.14, 0 572 M32 604 C10.1 601.9, 1.38 592.99, 0 572 M0 572 C-1.57 398.88, -0.91 225.89, 0 32 M0 572 C1.12 458.05, 1.38 343.72, 0 32 M0 32 C-1.95 12.42, 10.58 -0.82, 32 0 M0 32 C1.59 8.55, 12.35 1.37, 32 0" stroke="#1e1e1e" stroke-width="2" fill="none"></path></g><g transform="translate(1695.1711562006708 172.84374256381165) rotate(0 18.616666793823242 12.5)"><text x="18.616666793823242" y="17.52" font-family="Virgil, Segoe UI Emoji" font-size="20px" fill="#1e1e1e" text-anchor="middle" style="white-space: pre;" direction="ltr" dominant-baseline="alphabetic">API</text></g><g transform="translate(1210.8929988556654 412.9961733858448) rotate(310.80201138133197 103.85832977294922 12.5)"><text x="103.85832977294922" y="17.52" font-family="Virgil, Segoe UI Emoji" font-size="20px" fill="#1e1e1e" text-anchor="middle" style="white-space: pre;" direction="ltr" dominant-baseline="alphabetic">http://event-api/user</text></g><g transform="translate(1614.70334266949 228.31249256381165) rotate(0 113 12.870390873432228)"><text x="113" y="18.039139848202595" font-family="Virgil, Segoe UI Emoji" font-size="20.59262539749155px" fill="#1e1e1e" text-anchor="middle" style="white-space: pre;" direction="ltr" dominant-baseline="alphabetic">5.4 Reçoit la demande</text></g><g transform="translate(1608.0033457212478 268.9829277238575) rotate(0 119.69999694824219 25.740781746864428)"><text x="119.69999694824219" y="18.039139848202595" font-family="Virgil, Segoe UI Emoji" font-size="20.59262539749155px" fill="#1e1e1e" text-anchor="middle" style="white-space: pre;" direction="ltr" dominant-baseline="alphabetic">5.5 Regarde s'il connait</text><text x="119.69999694824219" y="43.77992159506703" font-family="Virgil, Segoe UI Emoji" font-size="20.59262539749155px" fill="#1e1e1e" text-anchor="middle" style="white-space: pre;" direction="ltr" dominant-baseline="alphabetic">le chemin "/login"</text></g><g transform="translate(1625.928341143611 328.1867257416457) rotate(0 101.7750015258789 25.740781746864428)"><text x="101.7750015258789" y="18.039139848202595" font-family="Virgil, Segoe UI Emoji" font-size="20.59262539749155px" fill="#1e1e1e" text-anchor="middle" style="white-space: pre;" direction="ltr" dominant-baseline="alphabetic">5.6 Trouve la bonne</text><text x="101.7750015258789" y="43.77992159506703" font-family="Virgil, Segoe UI Emoji" font-size="20.59262539749155px" fill="#1e1e1e" text-anchor="middle" style="white-space: pre;" direction="ltr" dominant-baseline="alphabetic">méthode associé </text></g><g transform="translate(1608.7366754941972 401.29054590274063) rotate(0 118.96666717529297 12.8703908734322)"><text x="118.96666717529297" y="18.039139848202595" font-family="Virgil, Segoe UI Emoji" font-size="20.59262539749155px" fill="#1e1e1e" text-anchor="middle" style="white-space: pre;" direction="ltr" dominant-baseline="alphabetic">5.7 Éxecute la méthode</text></g><g transform="translate(1557.9248322436974 448.3466738038753) rotate(0 167.4250030517578 38.82457163045399)"><text x="167.4250030517578" y="18.138839865748103" font-family="Virgil, Segoe UI Emoji" font-size="20.706438202908792px" fill="#1e1e1e" text-anchor="middle" style="white-space: pre;" direction="ltr" dominant-baseline="alphabetic">5.8.1 Fais une "query" à la base</text><text x="167.4250030517578" y="44.021887619384096" font-family="Virgil, Segoe UI Emoji" font-size="20.706438202908792px" fill="#1e1e1e" text-anchor="middle" style="white-space: pre;" direction="ltr" dominant-baseline="alphabetic">de donnée afin de recuperer les </text><text x="167.4250030517578" y="69.9049353730201" font-family="Virgil, Segoe UI Emoji" font-size="20.706438202908792px" fill="#1e1e1e" text-anchor="middle" style="white-space: pre;" direction="ltr" dominant-baseline="alphabetic">informations dans la table</text></g><g stroke-linecap="round"><g transform="translate(1951.7872498085526 501.1956776289643) rotate(0 157.68778659297072 4.730519828448166)"><path d="M-0.76 0.14 C51.92 1.64, 263.84 6.58, 316.52 8.29 M1.05 -0.84 C53.62 0.83, 263.93 7.65, 316.18 9.21" stroke="#1e1e1e" stroke-width="2" fill="none"></path></g><g transform="translate(1951.7872498085526 501.1956776289643) rotate(0 157.68778659297072 4.730519828448166)"><path d="M292.43 17.02 C300.77 16.44, 306.65 11.82, 316.18 9.21 M292.43 17.02 C300.61 14.79, 309.81 10.9, 316.18 9.21" stroke="#1e1e1e" stroke-width="2" fill="none"></path></g><g transform="translate(1951.7872498085526 501.1956776289643) rotate(0 157.68778659297072 4.730519828448166)"><path d="M292.97 -0.07 C301.02 5.14, 306.72 6.33, 316.18 9.21 M292.97 -0.07 C300.9 4.17, 309.91 6.75, 316.18 9.21" stroke="#1e1e1e" stroke-width="2" fill="none"></path></g></g><mask></mask><g stroke-linecap="round" transform="translate(2277.772197994494 460.4531175638117) rotate(0 129 67.5)"><path d="M32 0 C75.51 -0.32, 115.61 1.78, 226 0 M32 0 C95.43 -0.31, 158.24 -0.88, 226 0 M226 0 C245.56 -0.51, 256.91 12.04, 258 32 M226 0 C246.39 -0.06, 257.23 12.73, 258 32 M258 32 C259.02 53.12, 258.45 79.66, 258 103 M258 32 C258.91 50.7, 258.2 68.35, 258 103 M258 103 C256.25 122.68, 247.21 135.57, 226 135 M258 103 C255.92 125.79, 247.99 134.7, 226 135 M226 135 C164.3 135.49, 99.08 136.41, 32 135 M226 135 C157.41 134.69, 87.98 133.94, 32 135 M32 135 C10.06 136.7, -1.56 123.49, 0 103 M32 135 C11.57 134.18, 0.06 125.47, 0 103 M0 103 C-1.3 77.51, -0.57 50.24, 0 32 M0 103 C-0.31 84.59, -0.36 64.76, 0 32 M0 32 C-1.5 11.05, 10.79 0.62, 32 0 M0 32 C-0.49 12.68, 10.43 1.34, 32 0" stroke="#1e1e1e" stroke-width="2" fill="none"></path></g><g transform="translate(2345.9721987574335 420.4531175638117) rotate(0 61.79999923706055 12.5)"><text x="61.79999923706055" y="17.52" font-family="Virgil, Segoe UI Emoji" font-size="20px" fill="#1e1e1e" text-anchor="middle" style="white-space: pre;" direction="ltr" dominant-baseline="alphabetic">Table "User"</text></g><g transform="translate(2353.772197994494 489.4531175638117) rotate(0 59 12.5)"><text x="59" y="17.52" font-family="Virgil, Segoe UI Emoji" font-size="20px" fill="#1e1e1e" text-anchor="middle" style="white-space: pre;" direction="ltr" dominant-baseline="alphabetic">- identifiant</text></g><g transform="translate(2337.047199520373 535.9531175638117) rotate(0 75.7249984741211 12.5)"><text x="75.7249984741211" y="17.52" font-family="Virgil, Segoe UI Emoji" font-size="20px" fill="#1e1e1e" text-anchor="middle" style="white-space: pre;" direction="ltr" dominant-baseline="alphabetic">- mot de passe</text></g><g stroke-linecap="round"><g transform="translate(2256.412822994494 556.0234300638117) rotate(0 -143.7954337075089 19.71453878640284)"><path d="M0.36 -0.25 C-47.29 6, -238.88 31.8, -286.68 38.23 M-0.92 -1.43 C-48.57 4.86, -239.53 32.39, -287.15 39.14" stroke="#1e1e1e" stroke-width="2" fill="none"></path></g><g transform="translate(2256.412822994494 556.0234300638117) rotate(0 -143.7954337075089 19.71453878640284)"><path d="M-265.11 27.35 C-270.62 31.69, -277.35 34.79, -287.15 39.14 M-265.11 27.35 C-268.95 30.14, -273.76 33.19, -287.15 39.14" stroke="#1e1e1e" stroke-width="2" fill="none"></path></g><g transform="translate(2256.412822994494 556.0234300638117) rotate(0 -143.7954337075089 19.71453878640284)"><path d="M-262.69 44.28 C-268.86 44.66, -276.17 43.81, -287.15 39.14 M-262.69 44.28 C-266.98 43.59, -272.29 43.16, -287.15 39.14" stroke="#1e1e1e" stroke-width="2" fill="none"></path></g></g><mask></mask><g transform="translate(1959.6740304954915 436.2461698393064) rotate(2.394944183581882 133.78334045410156 25)"><text x="133.78334045410156" y="17.52" font-family="Virgil, Segoe UI Emoji" font-size="20px" fill="#1e1e1e" text-anchor="middle" style="white-space: pre;" direction="ltr" dominant-baseline="alphabetic">Donne moi les informations </text><text x="133.78334045410156" y="42.519999999999996" font-family="Virgil, Segoe UI Emoji" font-size="20px" fill="#1e1e1e" text-anchor="middle" style="white-space: pre;" direction="ltr" dominant-baseline="alphabetic">sur l'identifiant = "Skylows"</text></g><g transform="translate(2028.2113151609042 588.4079596815185) rotate(351.53536418908385 101.68333435058594 25)"><text x="101.68333435058594" y="17.52" font-family="Virgil, Segoe UI Emoji" font-size="20px" fill="#1e1e1e" text-anchor="middle" style="white-space: pre;" direction="ltr" dominant-baseline="alphabetic">Voici les informations</text><text x="101.68333435058594" y="42.519999999999996" font-family="Virgil, Segoe UI Emoji" font-size="20px" fill="#1e1e1e" text-anchor="middle" style="white-space: pre;" direction="ltr" dominant-baseline="alphabetic">sur l'user </text></g><g transform="translate(1558.3461573450797 578.2826483169472) rotate(0 169.06666564941406 25.740781746864457)"><text x="169.06666564941406" y="18.039139848202595" font-family="Virgil, Segoe UI Emoji" font-size="20.59262539749155px" fill="#1e1e1e" text-anchor="middle" style="white-space: pre;" direction="ltr" dominant-baseline="alphabetic">5.8.2 Vérifie que les informations</text><text x="169.06666564941406" y="43.77992159506703" font-family="Virgil, Segoe UI Emoji" font-size="20.59262539749155px" fill="#1e1e1e" text-anchor="middle" style="white-space: pre;" direction="ltr" dominant-baseline="alphabetic">sont conformes</text></g><g transform="translate(1573.5159418909786 692.2826483169476) rotate(0 156.60000610351562 38.61117262029666)"><text x="156.60000610351562" y="18.039139848202595" font-family="Virgil, Segoe UI Emoji" font-size="20.59262539749155px" fill="#1e1e1e" text-anchor="middle" style="white-space: pre;" direction="ltr" dominant-baseline="alphabetic">5.9.1 Renvoies les informations </text><text x="156.60000610351562" y="43.77992159506703" font-family="Virgil, Segoe UI Emoji" font-size="20.59262539749155px" fill="#1e1e1e" text-anchor="middle" style="white-space: pre;" direction="ltr" dominant-baseline="alphabetic">au serveur</text><text x="156.60000610351562" y="69.52070334193147" font-family="Virgil, Segoe UI Emoji" font-size="20.59262539749155px" fill="#1e1e1e" text-anchor="middle" style="white-space: pre;" direction="ltr" dominant-baseline="alphabetic">ex: "user reconnu"</text></g><g stroke-linecap="round"><g transform="translate(1494.9441470327245 736.0176140532726) rotate(0 -149.60494040347544 -10.963095549086859)"><path d="M-0.56 -0.79 C-50.25 -4.53, -248.9 -18.56, -298.51 -22.08 M1.35 1.41 C-48.4 -2.17, -249.12 -16.96, -299.08 -20.63" stroke="#1e1e1e" stroke-width="2" fill="none"></path></g><g transform="translate(1494.9441470327245 736.0176140532726) rotate(0 -149.60494040347544 -10.963095549086859)"><path d="M-275.03 -27.43 C-282.76 -24.55, -288.14 -22.21, -299.08 -20.63 M-275.03 -27.43 C-281.44 -24.37, -290.44 -23.91, -299.08 -20.63" stroke="#1e1e1e" stroke-width="2" fill="none"></path></g><g transform="translate(1494.9441470327245 736.0176140532726) rotate(0 -149.60494040347544 -10.963095549086859)"><path d="M-276.28 -10.38 C-283.73 -12.05, -288.77 -14.27, -299.08 -20.63 M-276.28 -10.38 C-282.41 -12.45, -291.02 -17.13, -299.08 -20.63" stroke="#1e1e1e" stroke-width="2" fill="none"></path></g></g><mask></mask><g transform="translate(749.0968780517578 693.046875) rotate(0 156.5749969482422 25)"><text x="156.5749969482422" y="17.52" font-family="Virgil, Segoe UI Emoji" font-size="20px" fill="#1e1e1e" text-anchor="middle" style="white-space: pre;" direction="ltr" dominant-baseline="alphabetic">5.9.2 Récupère les informations</text><text x="156.5749969482422" y="42.519999999999996" font-family="Virgil, Segoe UI Emoji" font-size="20px" fill="#1e1e1e" text-anchor="middle" style="white-space: pre;" direction="ltr" dominant-baseline="alphabetic"></text></g><g transform="translate(718.8635406494141 742.046875) rotate(0 180.80833435058594 50)"><text x="180.80833435058594" y="17.52" font-family="Virgil, Segoe UI Emoji" font-size="20px" fill="#1e1e1e" text-anchor="middle" style="white-space: pre;" direction="ltr" dominant-baseline="alphabetic">5.9.3 Créer les class avec les </text><text x="180.80833435058594" y="42.519999999999996" font-family="Virgil, Segoe UI Emoji" font-size="20px" fill="#1e1e1e" text-anchor="middle" style="white-space: pre;" direction="ltr" dominant-baseline="alphabetic">informations récupérées </text><text x="180.80833435058594" y="67.52" font-family="Virgil, Segoe UI Emoji" font-size="20px" fill="#1e1e1e" text-anchor="middle" style="white-space: pre;" direction="ltr" dominant-baseline="alphabetic">( on appelle ça "hydrater" un objet )</text><text x="180.80833435058594" y="92.52" font-family="Virgil, Segoe UI Emoji" font-size="20px" fill="#1e1e1e" text-anchor="middle" style="white-space: pre;" direction="ltr" dominant-baseline="alphabetic"></text></g><g transform="translate(756.421875 876.1953125) rotate(0 150.25 37.5)"><text x="150.25" y="17.52" font-family="Virgil, Segoe UI Emoji" font-size="20px" fill="#1e1e1e" text-anchor="middle" style="white-space: pre;" direction="ltr" dominant-baseline="alphabetic">6. Le controller valide et </text><text x="150.25" y="42.519999999999996" font-family="Virgil, Segoe UI Emoji" font-size="20px" fill="#1e1e1e" text-anchor="middle" style="white-space: pre;" direction="ltr" dominant-baseline="alphabetic">renvoie la page qui confirme la</text><text x="150.25" y="67.52" font-family="Virgil, Segoe UI Emoji" font-size="20px" fill="#1e1e1e" text-anchor="middle" style="white-space: pre;" direction="ltr" dominant-baseline="alphabetic">validation du login </text></g><g mask="url(#mask-MxI1cYLDN-7dRqmM6KFaK)" stroke-linecap="round"><g transform="translate(569.6618986164385 930.300033410198) rotate(0 -224.5 -310.5)"><path d="M1.18 0.27 C-62.46 -10.06, -306.22 41.08, -381.17 -62.56 C-456.11 -166.21, -437.04 -528.54, -448.48 -621.61 M0.34 -0.64 C-63.53 -11.26, -307.34 39.05, -382.23 -64.28 C-457.11 -167.61, -437.67 -528.02, -448.97 -620.62" stroke="#1e1e1e" stroke-width="2" fill="none"></path></g><g transform="translate(569.6618986164385 930.300033410198) rotate(0 -224.5 -310.5)"><path d="M-439.55 -597.46 C-442.32 -605.91, -444.8 -612.86, -448.97 -620.62 M-439.55 -597.46 C-441.54 -604.14, -444.1 -609.06, -448.97 -620.62" stroke="#1e1e1e" stroke-width="2" fill="none"></path></g><g transform="translate(569.6618986164385 930.300033410198) rotate(0 -224.5 -310.5)"><path d="M-456.64 -596.82 C-453.37 -605.67, -449.8 -612.84, -448.97 -620.62 M-456.64 -596.82 C-454.37 -603.67, -452.67 -608.74, -448.97 -620.62" stroke="#1e1e1e" stroke-width="2" fill="none"></path></g></g><mask id="mask-MxI1cYLDN-7dRqmM6KFaK"><rect x="0" y="0" fill="#fff" width="1118.6618986164385" height="1651.300033410198"></rect><rect x="98.85997427321001" y="841.9568480756952" fill="#000" width="179.6999969482422" height="50" opacity="1"></rect></mask><g transform="translate(98.85997427321001 841.9568480756952) rotate(0 246.90831876674963 -220.4681709227405)"><text x="89.8499984741211" y="17.52" font-family="Virgil, Segoe UI Emoji" font-size="20px" fill="#1e1e1e" text-anchor="middle" style="white-space: pre;" direction="ltr" dominant-baseline="alphabetic">7. Renvoie la page</text><text x="89.8499984741211" y="42.519999999999996" font-family="Virgil, Segoe UI Emoji" font-size="20px" fill="#1e1e1e" text-anchor="middle" style="white-space: pre;" direction="ltr" dominant-baseline="alphabetic">de bienvenue</text></g><g transform="translate(1251.8668796708366 684.952190096243) rotate(4.48206885779342 102.24166870117188 12.5)"><text x="102.24166870117188" y="17.52" font-family="Virgil, Segoe UI Emoji" font-size="20px" fill="#1e1e1e" text-anchor="middle" style="white-space: pre;" direction="ltr" dominant-baseline="alphabetic">"Voici ce que je sais"</text></g></svg>